<svg width="547" height="99" viewBox="0 0 547 99" fill="none" xmlns="http://www.w3.org/2000/svg">
<path d="M43.0208 68.0585C43.0208 56.3085 24.249 46.6182 0 45.2139V90.903C24.249 89.4987 43.0208 79.8552 43.0208 68.0585Z" fill="white"/>
<path d="M54.2573 32.3876C54.2573 44.1375 73.0292 53.8278 97.2782 55.2321V9.54297C73.0292 10.9473 54.2573 20.5908 54.2573 32.3876Z" fill="white"/>
<path d="M18.8655 1.58301C8.47309 1.58301 0 10.1029 0 20.4953V32.3857L56.8774 16.9844L97.2767 5.9834V1.58301H18.8655Z" fill="white"/>
<path d="M40.3993 52.6088L97.2767 68.057V58.7881L56.8774 47.8339L0 32.3857V41.6547L40.3993 52.6088Z" fill="white"/>
<path d="M0 94.46V98.954H78.4112C88.8505 98.954 97.2767 90.5278 97.2767 80.0885V68.1045L40.3993 83.5527L0 94.46Z" fill="white"/>
<path d="M142.64 90.5729C142.64 93.161 141.844 95.2183 140.185 96.7446C138.592 98.271 136.535 99.001 134.013 99.001C131.491 99.001 129.301 98.1383 127.576 96.4128C125.85 94.6874 124.988 92.5638 124.988 89.9756C124.988 87.3875 125.85 85.3302 127.576 83.6048C129.301 81.8793 131.425 81.0166 133.947 81.0166C135.871 81.0166 137.597 81.4811 138.99 82.4102C140.45 83.3393 141.446 84.6002 142.043 86.1266L140.185 86.5911C139.72 85.4629 138.924 84.5338 137.796 83.8702C136.667 83.2066 135.407 82.8084 133.947 82.8084C131.889 82.8084 130.23 83.472 128.903 84.8657C127.576 86.2593 126.978 87.9184 126.978 89.8429C126.978 91.7674 127.642 93.5592 128.903 94.9528C130.164 96.3465 131.956 97.0765 134.079 97.0765C135.937 97.0765 137.464 96.5456 138.725 95.4837C139.919 94.4219 140.583 92.962 140.716 91.1702H133.947V89.4447H142.706V90.5729H142.64Z" fill="white"/>
<path d="M162.358 96.8112V98.603H150.811V81.3486H152.802V96.8112H162.358Z" fill="white"/>
<path d="M170.78 96.3464C169.054 94.621 168.258 92.4974 168.258 89.9092C168.258 87.321 169.121 85.2638 170.78 83.5384C172.439 81.8129 174.629 80.9502 177.151 80.9502C179.672 80.9502 181.796 81.8129 183.521 83.5384C185.247 85.2638 186.043 87.3874 186.043 89.9092C186.043 92.431 185.181 94.621 183.521 96.3464C181.796 98.0719 179.672 98.9346 177.151 98.9346C174.629 98.9346 172.505 98.0719 170.78 96.3464ZM177.084 97.1428C179.141 97.1428 180.801 96.4792 182.061 95.0855C183.322 93.6919 183.986 92.0328 183.986 89.9756C183.986 87.9183 183.322 86.3256 182.061 84.932C180.801 83.5384 179.075 82.8747 177.084 82.8747C175.093 82.8747 173.368 83.5384 172.107 84.932C170.846 86.3256 170.182 87.9847 170.182 89.9756C170.182 91.9665 170.846 93.6919 172.107 95.0855C173.368 96.4792 175.093 97.1428 177.084 97.1428Z" fill="white"/>
<path d="M205.029 89.5776C206.024 89.9095 206.754 90.4404 207.285 91.1704C207.816 91.9004 208.081 92.8294 208.081 93.8249C208.081 95.2185 207.617 96.3467 206.621 97.2758C205.626 98.2048 204.299 98.603 202.573 98.603H194.212V81.3486H202.042C203.569 81.3486 204.896 81.7468 205.891 82.6095C206.887 83.4722 207.418 84.534 207.418 85.8613C207.418 87.6531 206.688 88.8477 205.029 89.5776ZM196.136 83.1404V88.9804H202.175C203.171 88.9804 203.967 88.7149 204.564 88.1177C205.161 87.5867 205.427 86.8568 205.427 85.994C205.427 85.1313 205.095 84.4677 204.498 83.8704C203.901 83.3395 203.038 83.0741 201.976 83.0741H196.136V83.1404ZM202.507 96.9439C203.635 96.9439 204.498 96.6121 205.161 96.0149C205.825 95.4176 206.157 94.6212 206.157 93.7585C206.157 92.9622 205.825 92.1658 205.161 91.5685C204.498 90.9713 203.635 90.6395 202.573 90.6395H196.136V96.9439H202.507Z" fill="white"/>
<path d="M227.336 93.9576H218.643L216.784 98.603H214.661L221.762 81.3486H224.217L231.318 98.603H229.194L227.336 93.9576ZM226.606 92.1658L223.022 83.2732L219.373 92.1658H226.606Z" fill="white"/>
<path d="M250.284 96.8112V98.603H238.737V81.3486H240.728V96.8112H250.284Z" fill="white"/>
<path d="M283.131 83.1404H276.76V98.603H274.769V83.1404H268.399V81.3486H283.131V83.1404Z" fill="white"/>
<path d="M297.736 91.834H292.693V98.603H290.768V81.3486H298.732C300.391 81.3486 301.718 81.8795 302.714 82.9413C303.709 84.0032 304.174 85.1977 304.174 86.5913C304.174 87.7858 303.775 88.914 303.045 89.9095C302.249 90.9049 301.187 91.5022 299.86 91.7676L304.505 98.6694H302.249L297.736 91.9003V91.834ZM292.693 90.1086H298.665C299.794 90.1086 300.656 89.7767 301.32 89.1131C301.984 88.4495 302.315 87.5868 302.315 86.6577C302.315 85.7286 301.984 84.9322 301.32 84.2022C300.656 83.4722 299.794 83.1404 298.665 83.1404H292.693V90.1086Z" fill="white"/>
<path d="M323.689 93.9576H314.995L313.137 98.603H311.013L318.114 81.3486H320.57L327.671 98.603H325.547L323.689 93.9576ZM322.959 92.1658L319.375 83.2732L315.725 92.1658H322.959Z" fill="white"/>
<path d="M347.835 83.7426C349.361 85.3353 350.091 87.459 350.091 89.9808C350.091 92.5026 349.361 94.5598 347.835 96.2189C346.308 97.8116 344.251 98.6743 341.663 98.6743H335.093V81.4199H341.663C344.251 81.4199 346.375 82.2163 347.835 83.809V83.7426ZM341.597 96.7498C343.654 96.7498 345.247 96.0862 346.441 94.8253C347.569 93.5644 348.167 91.9053 348.167 89.848C348.167 87.7908 347.569 86.2644 346.441 84.9372C345.313 83.6763 343.654 83.0126 341.663 83.0126H337.084V96.6834H341.663L341.597 96.7498Z" fill="white"/>
<path d="M360.324 83.1404V88.9804H369.283V90.7058H360.324V96.8112H370.544V98.603H358.4V81.3486H370.544V83.1404H360.324Z" fill="white"/>
<path d="M404.906 81.3486V98.603H403.181L392.696 84.7995V98.603H390.705V81.3486H392.43L402.915 95.2185V81.3486H404.84H404.906Z" fill="white"/>
<path d="M415.936 83.1404V88.9804H424.895V90.7058H415.936V96.8112H426.156V98.603H414.011V81.3486H426.156V83.1404H415.936Z" fill="white"/>
<path d="M447.928 83.1404H441.558V98.603H439.567V83.1404H433.196V81.3486H447.928V83.1404Z" fill="white"/>
<path d="M477.632 81.3486L472.19 98.603H470.133L465.82 84.5341L461.506 98.603H459.449L454.007 81.3486H456.064L460.444 95.8158L464.89 81.3486H466.682L471.129 95.8158L475.575 81.3486H477.632Z" fill="white"/>
<path d="M486.338 96.3464C484.613 94.621 483.817 92.4974 483.817 89.9092C483.817 87.321 484.679 85.2638 486.338 83.5384C487.998 81.8129 490.187 80.9502 492.709 80.9502C495.231 80.9502 497.355 81.8129 499.08 83.5384C500.806 85.2638 501.602 87.3874 501.602 89.9092C501.602 92.431 500.739 94.621 499.08 96.3464C497.355 98.0719 495.231 98.9346 492.709 98.9346C490.187 98.9346 488.064 98.0719 486.338 96.3464ZM492.643 97.1428C494.7 97.1428 496.359 96.4792 497.62 95.0855C498.881 93.6919 499.545 92.0328 499.545 89.9756C499.545 87.9183 498.881 86.3256 497.62 84.932C496.359 83.5384 494.7 82.8747 492.643 82.8747C490.586 82.8747 488.927 83.5384 487.666 84.932C486.405 86.3256 485.741 87.9847 485.741 89.9756C485.741 91.9665 486.405 93.6919 487.666 95.0855C488.927 96.4792 490.652 97.1428 492.643 97.1428Z" fill="white"/>
<path d="M516.868 91.834H511.825V98.603H509.9V81.3486H517.864C519.523 81.3486 520.85 81.8795 521.845 82.9413C522.841 84.0032 523.305 85.1977 523.305 86.5913C523.305 87.7858 522.907 88.914 522.177 89.9095C521.381 90.9049 520.319 91.5022 518.992 91.7676L523.637 98.6694H521.381L516.868 91.9003V91.834ZM511.825 90.1086H517.797C518.925 90.1086 519.788 89.7767 520.452 89.1131C521.115 88.4495 521.447 87.5868 521.447 86.6577C521.447 85.7286 521.115 84.9322 520.452 84.2022C519.788 83.4722 518.925 83.1404 517.797 83.1404H511.825V90.1086Z" fill="white"/>
<path d="M537.109 90.5117L533.79 94.1616V98.6743H531.8V81.4199H533.79V91.5735L543.015 81.4199H545.537L538.37 89.1844L546.134 98.7407H543.745L537.109 90.578V90.5117Z" fill="white"/>
<path d="M301.869 9.02689H322.655V1.38281H299.455C291.811 1.38281 285.24 3.93084 279.786 9.02689H301.869Z" fill="white"/>
<path d="M322.745 33.2567C319.034 29.8593 314.162 28.1159 308.172 28.1159H288.279C284.971 28.1159 282.289 27.2219 280.277 25.4785C278.266 23.6904 277.282 21.1424 277.282 17.7897C277.282 14.4371 278.132 11.442 279.83 8.9834C276.567 9.83274 273.93 11.442 271.963 13.8112C269.996 16.1805 269.012 18.952 269.012 22.1259C269.012 26.2832 270.756 29.6358 274.287 32.2286C277.819 34.8213 282.513 36.1176 288.413 36.1176H308.216C311.524 36.1176 314.251 37.0564 316.397 38.9786C318.543 40.9008 319.615 43.3147 319.615 46.2651C319.615 49.2154 318.543 51.7187 316.352 53.6856C314.206 55.6525 311.48 56.5913 308.216 56.5913H271.56V64.2353H308.216C314.251 64.2353 319.124 62.5814 322.789 59.184C326.5 55.8313 328.332 51.4952 328.332 46.2651C328.332 41.0349 326.5 36.6541 322.789 33.212L322.745 33.2567Z" fill="white"/>
<path d="M235.673 9.02689H256.459V1.38281H233.259C225.615 1.38281 219.044 3.93084 213.59 9.02689H235.673Z" fill="white"/>
<path d="M256.595 33.2567C252.884 29.8593 248.012 28.1159 242.022 28.1159H222.129C218.821 28.1159 216.139 27.2219 214.128 25.4785C212.116 23.6904 211.133 21.1424 211.133 17.7897C211.133 14.4371 211.982 11.442 213.681 8.9834C210.417 9.83274 207.78 11.442 205.813 13.8112C203.846 16.1805 202.863 18.952 202.863 22.1259C202.863 26.2832 204.606 29.6358 208.138 32.2286C211.669 34.8213 216.363 36.1176 222.263 36.1176H242.067C245.374 36.1176 248.101 37.0564 250.247 38.9786C252.393 40.9008 253.466 43.3147 253.466 46.2651C253.466 49.2154 252.393 51.7187 250.202 53.6856C248.057 55.6525 245.33 56.5913 242.067 56.5913H205.411V64.2353H242.067C248.101 64.2353 252.974 62.5814 256.639 59.184C260.35 55.8313 262.183 51.4952 262.183 46.2651C262.183 41.0349 260.35 36.6541 256.639 33.212L256.595 33.2567Z" fill="white"/>
<path d="M181.312 14.1706C180.508 12.159 178.809 8.53813 175.233 5.40897C173.311 3.75499 167.946 0 160.794 0C160.705 0 160.571 0 160.436 0C160.347 0 160.213 0 160.123 0C152.792 0 147.607 3.71028 145.685 5.40897C142.108 8.53813 140.41 12.159 139.605 14.1706L124.988 64.2371H134.196L140.231 43.3165H180.597L186.632 64.2371H195.841L181.223 14.1706H181.312ZM160.749 35.1807H142.645L148.188 16.0481C148.546 14.8858 149.171 13.3213 150.378 11.8461C153.82 7.64408 159.051 7.28646 160.168 7.24176H160.705C161.822 7.28646 167.052 7.64408 170.494 11.8461C171.701 13.3213 172.372 14.8858 172.685 16.0481L178.228 35.1807H160.66H160.749Z" fill="white"/>
<path d="M393.96 14.1706C393.155 12.159 391.456 8.53813 387.88 5.40897C385.958 3.75499 380.594 0 373.441 0C373.352 0 373.218 0 373.084 0C372.994 0 372.86 0 372.771 0C365.44 0 360.254 3.71028 358.332 5.40897C354.756 8.53813 353.057 12.159 352.253 14.1706L337.635 64.2371H346.844L352.878 43.3165H393.244L399.279 64.2371H408.488L393.87 14.1706H393.96ZM373.397 35.1807H355.292L360.835 16.0481C361.193 14.8858 361.819 13.3213 363.026 11.8461C366.468 7.64408 371.698 7.28646 372.816 7.24176H373.352C374.47 7.28646 379.7 7.64408 383.142 11.8461C384.349 13.3213 385.019 14.8858 385.332 16.0481L390.875 35.1807H373.307H373.397Z" fill="white"/>
<path d="M533.438 9.47294H546.134V1.38184H492.178V64.2779H501.297V35.3555H541.932V27.2644H519.983C512.696 27.2644 506.528 29.1866 501.297 32.8522V9.47294H533.483H533.438Z" fill="white"/>
<path d="M472.327 1.38184L454.714 21.8555C452.39 24.5376 450.557 26.3704 449.216 27.3091C447.875 28.2032 446.399 28.6949 444.701 28.6949C443.047 28.6949 441.527 28.2479 440.186 27.3091C438.845 26.3704 437.012 24.5823 434.687 21.8555L417.075 1.38184H406.615L426.373 24.3141C429.994 28.5161 432.721 31.2876 434.464 32.6287C436.207 33.9698 438.398 34.8191 440.946 35.0873V36.4284C441.303 36.6072 441.616 36.786 441.974 36.9201C443.404 37.6353 444.79 38.3506 446.221 39.0211C446.221 39.0211 446.221 39.0211 446.265 39.0211C446.399 39.1552 446.534 39.2893 446.668 39.4234C446.489 39.5128 446.355 39.6469 446.176 39.6916C445.729 39.781 445.237 39.8258 444.79 39.9152C443.539 40.094 442.242 40.2728 440.99 40.4516V64.3226H448.411V35.132C451.004 34.8191 453.149 34.0145 454.893 32.6734C456.636 31.3323 459.363 28.5608 462.984 24.3588L482.742 1.42654H472.282L472.327 1.38184Z" fill="white"/>
</svg>
