<svg width="775" height="100" viewBox="0 0 775 100" fill="none" xmlns="http://www.w3.org/2000/svg">
<path d="M43.0208 68.4754C43.0208 56.7255 24.249 47.0352 0 45.6309V91.32C24.249 89.9156 43.0208 80.2722 43.0208 68.4754Z" fill="#FFFFFF"/>
<path d="M54.2573 32.8045C54.2573 44.5545 73.0292 54.2448 97.2782 55.6491V9.95996C73.0292 11.3643 54.2573 21.0078 54.2573 32.8045Z" fill="#FFFFFF"/>
<path d="M18.8655 2C8.47309 2 0 10.5199 0 20.9123V32.8027L56.8774 17.4014L97.2767 6.40039V2H18.8655Z" fill="#FFFFFF"/>
<path d="M40.3993 53.0258L97.2767 68.474V59.2051L56.8774 48.2509L0 32.8027V42.0716L40.3993 53.0258Z" fill="#FFFFFF"/>
<path d="M0 94.877V99.371H78.4112C88.8505 99.371 97.2767 90.9448 97.2767 80.5055V68.5215L40.3993 83.9697L0 94.877Z" fill="#FFFFFF"/>
<path d="M398.229 13.8931H430.222V2.12793H394.513C382.748 2.12793 372.634 6.04964 364.241 13.8931H398.229Z" fill="#FFFFFF"/>
<path d="M430.359 51.1856C424.648 45.9567 417.149 43.2734 407.929 43.2734H377.312C372.221 43.2734 368.093 41.8974 364.997 39.2141C361.901 36.462 360.387 32.5403 360.387 27.3802C360.387 22.22 361.694 17.6103 364.309 13.8262C359.286 15.1334 355.227 17.6103 352.2 21.2568C349.172 24.9033 347.659 29.169 347.659 34.054C347.659 40.4525 350.342 45.6127 355.777 49.6032C361.213 53.5937 368.437 55.589 377.519 55.589H407.998C413.089 55.589 417.286 57.0338 420.589 59.9923C423.891 62.9508 425.543 66.6661 425.543 71.207C425.543 75.748 423.891 79.6009 420.52 82.6282C417.218 85.6554 413.021 87.1003 407.998 87.1003H351.581V98.8654H407.998C417.286 98.8654 424.786 96.3197 430.428 91.0908C436.138 85.9306 438.959 79.2569 438.959 71.207C438.959 63.1572 436.138 56.4146 430.428 51.1168L430.359 51.1856Z" fill="#FFFFFF"/>
<path d="M296.345 13.8931H328.338V2.12793H292.63C280.865 2.12793 270.751 6.04964 262.357 13.8931H296.345Z" fill="#FFFFFF"/>
<path d="M328.547 51.1856C322.836 45.9567 315.337 43.2734 306.117 43.2734H275.5C270.409 43.2734 266.281 41.8974 263.185 39.2141C260.089 36.462 258.575 32.5403 258.575 27.3802C258.575 22.22 259.882 17.6103 262.497 13.8262C257.474 15.1334 253.415 17.6103 250.387 21.2568C247.36 24.9033 245.847 29.169 245.847 34.054C245.847 40.4525 248.53 45.6127 253.965 49.6032C259.401 53.5937 266.625 55.589 275.707 55.589H306.186C311.277 55.589 315.474 57.0338 318.777 59.9923C322.079 62.9508 323.73 66.6661 323.73 71.207C323.73 75.748 322.079 79.6009 318.708 82.6282C315.405 85.6554 311.208 87.1003 306.186 87.1003H249.768V98.8654H306.186C315.474 98.8654 322.974 96.3197 328.615 91.0908C334.326 85.9306 337.147 79.2569 337.147 71.207C337.147 63.1572 334.326 56.4146 328.615 51.1168L328.547 51.1856Z" fill="#FFFFFF"/>
<path d="M212.678 21.8102C211.44 18.7141 208.825 13.1412 203.321 8.32504C200.362 5.77937 192.106 0 181.098 0C180.96 0 180.754 0 180.548 0C180.41 0 180.204 0 180.066 0C168.782 0 160.801 5.71056 157.843 8.32504C152.339 13.1412 149.724 18.7141 148.486 21.8102L125.988 98.8684H140.161L149.449 66.6691H211.577L220.865 98.8684H235.039L212.54 21.8102H212.678ZM181.029 54.1472H153.164L161.696 24.6999C162.246 22.9111 163.209 20.503 165.067 18.2325C170.365 11.7651 178.415 11.2147 180.135 11.1459H180.96C182.68 11.2147 190.73 11.7651 196.028 18.2325C197.886 20.503 198.918 22.9111 199.399 24.6999L207.931 54.1472H180.892H181.029Z" fill="#FFFFFF"/>
<path d="M539.967 21.8102C538.729 18.7141 536.114 13.1412 530.61 8.32504C527.652 5.77937 519.396 0 508.387 0C508.25 0 508.043 0 507.837 0C507.699 0 507.493 0 507.355 0C496.072 0 488.091 5.71056 485.132 8.32504C479.628 13.1412 477.014 18.7141 475.775 21.8102L453.277 98.8684H467.45L476.738 66.6691H538.866L548.155 98.8684H562.328L539.83 21.8102H539.967ZM508.318 54.1472H480.454L488.985 24.6999C489.535 22.9111 490.499 20.503 492.356 18.2325C497.654 11.7651 505.704 11.2147 507.424 11.1459H508.25C509.97 11.2147 518.02 11.7651 523.317 18.2325C525.175 20.503 526.207 22.9111 526.689 24.6999L535.22 54.1472H508.181H508.318Z" fill="#FFFFFF"/>
<path d="M754.641 14.5801H774.181V2.12695H691.137V98.9313H705.173V54.4165H767.714V41.9633H733.932C722.717 41.9633 713.222 44.9218 705.173 50.5635V14.5801H754.71H754.641Z" fill="#FFFFFF"/>
<path d="M660.583 2.12695L633.475 33.6383C629.898 37.7664 627.077 40.5873 625.013 42.0321C622.949 43.4081 620.678 44.165 618.064 44.165C615.518 44.165 613.179 43.477 611.115 42.0321C609.051 40.5873 606.23 37.8352 602.652 33.6383L575.544 2.12695H559.445L589.855 37.4224C595.428 43.8898 599.625 48.1555 602.308 50.2195C604.991 52.2836 608.363 53.5908 612.285 54.0037V56.0677C612.835 56.3429 613.317 56.6181 613.867 56.8245C616.069 57.9254 618.201 59.0262 620.403 60.0582C620.403 60.0582 620.403 60.0582 620.472 60.0582C620.678 60.2646 620.885 60.471 621.091 60.6774C620.816 60.815 620.61 61.0215 620.334 61.0903C619.646 61.2279 618.889 61.2967 618.201 61.4343C616.275 61.7095 614.28 61.9847 612.353 62.2599V99.0002H623.774V54.0725C627.765 53.5908 631.067 52.3524 633.751 50.2883C636.434 48.2243 640.631 43.9586 646.204 37.4912L676.614 2.19576H660.515L660.583 2.12695Z" fill="#FFFFFF"/>
</svg>
